<svg xmlns="http://www.w3.org/2000/svg" viewBox="0 0 270 80" width="270" height="80">
	<style>
		tspan { white-space:pre }
	</style>
	<path id="验光师之家 " fill="#000000" d="M15.4 34.79L15.89 39.63Q12.38 40.45 8.86 41.28Q5.39 42.1 2.31 42.82L1.26 37.76Q4.01 37.27 7.7 36.49Q11.44 35.67 15.4 34.79ZM29.98 17.19L44.55 17.19Q42.46 15.32 40.48 13.4Q38.55 11.41 36.8 9.38Q35.26 11.52 33.49 13.51Q31.79 15.43 29.98 17.19ZM46.04 22.69L29.09 22.69L29.09 18.02Q27.72 19.23 26.4 20.32Q25.08 21.37 23.65 22.3Q23.32 21.64 22.61 20.66Q21.95 19.66 21.18 18.68Q20.46 17.63 19.91 17.02Q19.75 19.39 19.52 21.64Q19.36 23.9 19.14 25.77L23.38 25.77Q23.38 25.77 23.32 26.7Q23.32 27.59 23.27 28.14Q22.93 34.95 22.55 39.24Q22.16 43.48 21.61 45.79Q21.07 48.1 20.24 49.03Q19.36 50.08 18.37 50.52Q17.38 50.96 16.06 51.13Q15.02 51.23 13.14 51.23Q11.33 51.23 9.35 51.18Q9.29 49.97 8.86 48.54Q8.47 47.05 7.75 45.95Q9.57 46.12 11.17 46.17Q12.76 46.23 13.47 46.23Q14.19 46.23 14.57 46.12Q15.02 45.95 15.4 45.57Q16.17 44.74 16.66 41.45Q17.16 38.09 17.55 30.89L3.35 30.89Q3.69 28.41 3.96 25.11Q4.24 21.75 4.46 18.23Q4.67 14.66 4.79 11.58L10.34 11.91Q10.18 15.16 9.9 18.84Q9.63 22.52 9.35 25.82L13.64 25.82Q14.08 22.14 14.46 17.36Q14.85 12.57 15.07 7.9L2.64 7.9L2.64 2.4L20.79 2.4Q20.63 5.75 20.35 9.6Q20.13 13.4 19.86 17.02Q23.1 15.04 26.07 12.35Q29.09 9.66 31.57 6.46Q34.1 3.22 35.8 -0.24L41.47 1.73Q41.14 2.4 40.76 3.05Q40.42 3.71 40.04 4.38Q41.91 6.46 44.22 8.61Q46.53 10.7 49.06 12.57Q51.59 14.38 54.01 15.7Q53.19 16.91 52.3 18.89Q51.48 20.82 51.04 22.2Q49.83 21.37 48.56 20.43Q47.3 19.5 46.04 18.45L46.04 22.69ZM42.13 38.48L36.91 39.24Q36.8 37.48 36.47 35.23Q36.13 32.98 35.7 30.66Q35.31 28.3 34.87 26.27L39.82 25.55Q40.59 28.63 41.25 32.2Q41.91 35.78 42.13 38.48ZM33.55 39.3L28.27 40.78Q28.11 39.02 27.61 36.77Q27.17 34.52 26.57 32.2Q26.02 29.84 25.41 27.8L30.36 26.48Q31.07 28.52 31.68 30.83Q32.29 33.14 32.78 35.34Q33.27 37.54 33.55 39.3ZM46.7 25.88L52.63 27.14Q51.15 31.32 49.39 35.84Q47.69 40.29 45.98 43.87L52.52 43.87L52.52 49.37L24.04 49.37L24.04 43.87L40.48 43.87Q41.63 41.34 42.79 38.26Q44 35.12 45.05 31.88Q46.09 28.63 46.7 25.88ZM97.79 3.77L104.72 6.3Q102.58 9.49 100.16 12.68Q97.79 15.82 95.7 18.02L89.98 15.65Q91.35 14.05 92.78 12.02Q94.27 9.98 95.59 7.84Q96.91 5.64 97.79 3.77ZM75.19 14.6L69.52 18.07Q68.81 16.53 67.48 14.55Q66.22 12.52 64.68 10.42Q63.14 8.28 61.66 6.46L66.88 3.44Q68.42 5.09 70.02 7.13Q71.61 9.16 72.98 11.14Q74.36 13.06 75.19 14.6ZM94.66 44.47L99.94 44.47Q100.7 44.47 101.09 44.09Q101.47 43.7 101.64 42.6Q101.86 41.5 101.97 39.3Q103.02 40.07 104.83 40.84Q106.65 41.55 108.02 41.83Q107.63 45.3 106.81 47.22Q105.98 49.15 104.5 49.97Q103.02 50.74 100.54 50.74L93.66 50.74Q90.53 50.74 88.83 49.97Q87.12 49.2 86.46 47.38Q85.8 45.52 85.8 42.33L85.8 26.48L78.59 26.48Q78.21 30.77 77.28 34.57Q76.39 38.37 74.53 41.61Q72.71 44.85 69.41 47.49Q66.17 50.08 60.94 52.01Q60.39 50.69 59.18 49.03Q58.02 47.33 56.87 46.34Q61.44 44.85 64.24 42.82Q67.05 40.78 68.53 38.31Q70.07 35.78 70.73 32.81Q71.39 29.84 71.66 26.48L58.19 26.48L58.19 20.11L78.98 20.11L78.98 0.25L85.91 0.25L85.91 20.11L106.75 20.11L106.75 26.48L92.51 26.48L92.51 42.27Q92.51 43.76 92.9 44.14Q93.28 44.47 94.66 44.47ZM114.13 6.74L119.95 6.74L119.95 33.52L114.13 33.52L114.13 6.74ZM123.2 22.3L123.2 0.52L129.19 0.52L129.19 22.36Q129.19 26.48 128.87 30.5Q128.59 34.52 127.6 38.31Q126.66 42.05 124.74 45.46Q122.81 48.81 119.63 51.67Q118.8 50.69 117.31 49.37Q115.83 48.05 114.67 47.33Q118.53 44.09 120.28 40.07Q122.1 36.05 122.65 31.55Q123.2 27.04 123.2 22.3ZM162.41 2.95L162.41 8.88L149.55 8.88L149.55 13.78L161.09 13.78L161.09 37.54Q161.09 39.47 160.66 40.67Q160.27 41.88 159 42.66Q157.85 43.37 156.25 43.53Q154.66 43.7 152.51 43.7Q152.35 42.44 151.85 40.84Q151.41 39.24 150.81 38.09Q151.91 38.14 152.9 38.14Q153.94 38.14 154.33 38.14Q155.05 38.14 155.05 37.38L155.05 19.66L149.55 19.66L149.55 51.67L143.44 51.67L143.44 19.66L138.44 19.66L138.44 43.81L132.55 43.81L132.55 13.78L143.44 13.78L143.44 8.88L131.06 8.88L131.06 2.95L162.41 2.95ZM208.28 10.59L209.55 10.26L214.61 13.62Q211.15 18.73 206.36 23.9Q201.63 29.07 196.19 33.74Q190.8 38.37 185.24 41.99Q187.82 43.53 191.24 44.03Q194.7 44.47 199.05 44.47Q201.85 44.47 205.31 44.3Q208.84 44.14 212.25 43.87Q215.71 43.53 218.3 43.15Q217.97 44.03 217.53 45.35Q217.14 46.67 216.81 47.99Q216.48 49.26 216.43 50.13Q214.94 50.24 212.8 50.35Q210.65 50.47 208.18 50.58Q205.7 50.63 203.28 50.69Q200.86 50.74 198.82 50.74Q193.76 50.74 190.25 50.08Q186.72 49.42 183.92 47.72Q182.16 46.67 180.78 45.57Q179.47 44.47 178.53 44.47Q177.71 44.47 176.6 45.57Q175.56 46.62 174.41 48.27Q173.25 49.91 172.09 51.67L167.37 45.52Q170.34 42.33 173.36 40.34Q176.44 38.37 178.69 38.37L179.03 38.37Q183.53 35.67 187.99 32.15Q192.5 28.57 196.46 24.67Q200.42 20.77 203.34 17.02L170.17 17.02L170.17 10.59L191.62 10.59Q190.63 8.83 189.25 6.74Q187.88 4.59 186.67 2.89L192.56 -0.24Q193.6 1.13 194.75 2.78Q195.97 4.38 197.01 5.91Q198.11 7.45 198.72 8.66L195.36 10.59L208.28 10.59ZM264.66 10.7L230.34 10.7L230.34 17.19L223.91 17.19L223.91 4.76L243.81 4.76Q243.54 3.99 243.16 3.22Q242.82 2.45 242.5 1.84L249.43 -0.13Q250.09 0.96 250.75 2.28Q251.41 3.55 251.79 4.76L271.37 4.76L271.37 17.19L264.66 17.19L264.66 10.7ZM262.51 20.16L267.96 24.45Q266.31 25.71 264.5 27.04Q262.68 28.3 260.87 29.57Q262.46 34.41 265.7 38.26Q269 42.1 273.74 44.03Q272.63 44.91 271.37 46.56Q270.11 48.16 269.39 49.37Q264.44 47 261.08 42.77Q257.79 38.48 255.75 32.87Q255.37 33.14 254.93 33.41Q254.49 33.63 254.05 33.91Q254.81 37.21 254.65 40.29Q254.54 43.31 253.72 45.68Q252.89 47.99 251.46 49.15Q250.03 50.63 248.55 51.18Q247.06 51.67 244.91 51.73Q244.03 51.78 242.82 51.78Q241.67 51.73 240.46 51.67Q240.41 50.3 239.97 48.59Q239.53 46.84 238.7 45.46Q240.13 45.63 241.4 45.68Q242.72 45.73 243.65 45.73Q244.64 45.73 245.35 45.52Q246.07 45.3 246.62 44.41Q247.34 43.76 247.78 42.33Q248.22 40.84 248.22 38.86Q245.08 41.01 241.28 43.04Q237.55 45.02 233.59 46.67Q229.68 48.32 226 49.42Q225.44 48.21 224.46 46.67Q223.52 45.08 222.59 43.98Q225.83 43.26 229.29 42.1Q232.81 40.89 236.12 39.41Q239.47 37.87 242.33 36.16Q245.25 34.46 247.28 32.76Q246.9 31.66 246.46 30.66Q243.71 32.37 240.3 34.08Q236.88 35.78 233.31 37.21Q229.79 38.64 226.66 39.63Q226.1 38.53 225.17 37.1Q224.29 35.62 223.41 34.57Q226.82 33.86 230.67 32.59Q234.52 31.27 238.04 29.68Q241.62 28.08 243.98 26.48Q243.59 26.04 243.21 25.61Q242.88 25.11 242.44 24.67Q238.87 26.54 234.96 27.97Q231.06 29.4 227.15 30.45Q226.88 29.79 226.27 28.85Q225.66 27.86 225 26.93Q224.34 25.93 223.79 25.33Q228.47 24.39 233.15 22.86Q237.82 21.32 241.5 19.28L232.04 19.28L232.04 13.73L262.79 13.73L262.79 19.28L250.58 19.28Q249.87 19.94 249.04 20.6Q248.22 21.2 247.28 21.81Q248.88 23.29 250.09 25Q251.3 26.7 252.12 28.46Q254.98 26.54 257.73 24.34Q260.54 22.14 262.51 20.16Z" />
	<path id="www.EYEJA.com " fill="#000000" d="M11.22 80L5.68 80L0.89 61.52L5.74 61.52L7.76 70.66Q8.02 71.98 8.22 73.33Q8.45 74.69 8.68 76.04L8.81 76.04Q9.08 74.69 9.34 73.33Q9.64 71.98 9.97 70.66L12.18 61.52L16.5 61.52L18.81 70.66Q19.14 71.98 19.4 73.33Q19.67 74.69 19.96 76.04L20.13 76.04Q20.39 74.69 20.59 73.33Q20.79 71.98 21.05 70.66L23.07 61.52L27.55 61.52L23 80L17.29 80L15.35 71.95Q15.05 70.63 14.78 69.34Q14.55 68.02 14.29 66.57L14.12 66.57Q13.86 68.02 13.63 69.34Q13.4 70.66 13.1 71.95L11.22 80ZM39.7 80L34.16 80L29.37 61.52L34.22 61.52L36.23 70.66Q36.5 71.98 36.7 73.33Q36.93 74.69 37.16 76.04L37.29 76.04Q37.55 74.69 37.82 73.33Q38.12 71.98 38.45 70.66L40.66 61.52L44.98 61.52L47.29 70.66Q47.62 71.98 47.88 73.33Q48.15 74.69 48.44 76.04L48.61 76.04Q48.87 74.69 49.07 73.33Q49.27 71.98 49.53 70.66L51.55 61.52L56.03 61.52L51.48 80L45.77 80L43.82 71.95Q43.53 70.63 43.26 69.34Q43.03 68.02 42.77 66.57L42.6 66.57Q42.34 68.02 42.11 69.34Q41.88 70.66 41.58 71.95L39.7 80ZM68.18 80L62.63 80L57.85 61.52L62.7 61.52L64.71 70.66Q64.98 71.98 65.18 73.33Q65.41 74.69 65.64 76.04L65.77 76.04Q66.03 74.69 66.3 73.33Q66.59 71.98 66.92 70.66L69.14 61.52L73.46 61.52L75.77 70.66Q76.1 71.98 76.36 73.33Q76.63 74.69 76.92 76.04L77.09 76.04Q77.35 74.69 77.55 73.33Q77.75 71.98 78.01 70.66L80.03 61.52L84.51 61.52L79.96 80L74.25 80L72.3 71.95Q72.01 70.63 71.74 69.34Q71.51 68.02 71.25 66.57L71.08 66.57Q70.82 68.02 70.59 69.34Q70.36 70.66 70.06 71.95L68.18 80ZM88.08 80.46Q86.79 80.46 85.93 79.54Q85.07 78.61 85.07 77.29Q85.07 75.94 85.93 75.05Q86.79 74.13 88.08 74.13Q89.4 74.13 90.26 75.05Q91.11 75.94 91.11 77.29Q91.11 78.61 90.26 79.54Q89.4 80.46 88.08 80.46ZM198.46 80.46Q197.17 80.46 196.32 79.54Q195.46 78.61 195.46 77.29Q195.46 75.94 196.32 75.05Q197.17 74.13 198.46 74.13Q199.78 74.13 200.64 75.05Q201.5 75.94 201.5 77.29Q201.5 78.61 200.64 79.54Q199.78 80.46 198.46 80.46ZM213.91 80.46Q211.33 80.46 209.29 79.34Q207.27 78.19 206.08 76.01Q204.9 73.83 204.9 70.79Q204.9 67.69 206.22 65.55Q207.54 63.37 209.68 62.21Q211.83 61.06 214.33 61.06Q216.05 61.06 217.37 61.65Q218.69 62.25 219.71 63.1L217.4 66.24Q216.71 65.64 216.02 65.35Q215.36 65.02 214.57 65.02Q212.45 65.02 211.13 66.6Q209.85 68.15 209.85 70.79Q209.85 73.4 211.13 74.95Q212.42 76.5 214.43 76.5Q215.42 76.5 216.35 76.07Q217.27 75.64 218.03 75.02L219.94 78.22Q218.63 79.37 217.04 79.93Q215.46 80.46 213.91 80.46ZM230.18 80.46Q227.87 80.46 225.82 79.34Q223.81 78.19 222.55 76.01Q221.3 73.83 221.3 70.79Q221.3 67.69 222.55 65.55Q223.81 63.37 225.82 62.21Q227.87 61.06 230.18 61.06Q232.49 61.06 234.5 62.21Q236.54 63.37 237.8 65.55Q239.05 67.69 239.05 70.79Q239.05 73.83 237.8 76.01Q236.54 78.19 234.5 79.34Q232.49 80.46 230.18 80.46ZM230.18 76.5Q232.06 76.5 233.08 74.95Q234.1 73.4 234.1 70.79Q234.1 68.15 233.08 66.6Q232.06 65.02 230.18 65.02Q228.29 65.02 227.27 66.6Q226.25 68.15 226.25 70.79Q226.25 73.4 227.27 74.95Q228.29 76.5 230.18 76.5ZM247.93 80L243.11 80L243.11 61.52L247.07 61.52L247.4 64L247.53 64Q248.69 62.77 250.04 61.92Q251.39 61.06 253.21 61.06Q255.19 61.06 256.41 61.92Q257.63 62.74 258.29 64.29Q259.55 62.94 260.93 62.02Q262.35 61.06 264.17 61.06Q267.1 61.06 268.49 63.04Q269.91 64.98 269.91 68.48L269.91 80L265.06 80L265.06 69.08Q265.06 66.93 264.43 66.07Q263.8 65.22 262.48 65.22Q260.9 65.22 258.92 67.3L258.92 80L254.07 80L254.07 69.08Q254.07 66.93 253.44 66.07Q252.81 65.22 251.49 65.22Q249.91 65.22 247.93 67.3L247.93 80Z" />
	<path id="www.EYEJA.com " fill="#a80808" d="M111.8 80L96.46 80L96.46 55.58L111.44 55.58L111.44 59.64L101.34 59.64L101.34 65.28L109.92 65.28L109.92 69.37L101.34 69.37L101.34 75.91L111.8 75.91L111.8 80ZM125.76 80L120.88 80L120.88 71.06L113.55 55.58L118.73 55.58L121.18 61.52Q121.7 62.87 122.2 64.19Q122.73 65.51 123.29 66.93L123.42 66.93Q123.98 65.51 124.51 64.19Q125.07 62.87 125.6 61.52L128.04 55.58L133.12 55.58L125.76 71.06L125.76 80ZM151.27 80L135.93 80L135.93 55.58L150.91 55.58L150.91 59.64L140.81 59.64L140.81 65.28L149.39 65.28L149.39 69.37L140.81 69.37L140.81 75.91L151.27 75.91L151.27 80ZM161.53 80.46Q158.86 80.46 157.01 79.37Q155.2 78.28 153.94 76.17L157.31 73.7Q158.04 75.02 158.96 75.64Q159.92 76.24 160.94 76.24Q162.56 76.24 163.38 75.25Q164.21 74.22 164.21 71.72L164.21 55.58L169.09 55.58L169.09 72.11Q169.09 74.39 168.3 76.3Q167.51 78.19 165.82 79.34Q164.17 80.46 161.53 80.46ZM180.28 67.26L179.55 69.94L185.36 69.94L184.63 67.26Q184.07 65.35 183.55 63.3Q183.05 61.26 182.49 59.28L182.36 59.28Q181.9 61.29 181.37 63.34Q180.84 65.35 180.28 67.26ZM193.25 80L188.13 80L186.42 73.73L178.5 73.73L176.78 80L171.83 80L179.65 55.58L185.39 55.58L193.25 80Z" />
</svg>